# xmcd CD database file
#
# Track frame offsets:
#	150
#	12999
#	23050
#	35533
#	45210
#	55218
#	66398
#	75795
#	92809
#	104623
#	115521
#	126477
#	140196
#	149362
#	159735
#	172723
#
# Disc length: 2463 seconds
#
# Revision: 2
# Processed by: cddbd v1.5.1PL0 Copyright (c) Steve Scherf et al.
# Submitted via: CDex 1.51
#
DISCID=d2099d10
DTITLE=Patsy Cline - Dreaming
DYEAR=1900
DGENRE=Country
TTITLE0=I Fall To Pieces
TTITLE1=Heartaches
TTITLE2=Crazy
TTITLE3=Tra Le La Le La Triangle
TTITLE4=Have You Ever Been Lonely
TTITLE5=There He Goes
TTITLE6=Back In Baby's Arms
TTITLE7=Faded Love
TTITLE8=Sweet Dreams
TTITLE9=Your Cheatin' Heart
TTITLE10=San Antonio Rose
TTITLE11=She's Got You
TTITLE12=Walking After Midnight
TTITLE13=Three Cigarettes In An Ashtray
TTITLE14=When You Need A Laugh
TTITLE15=Always
EXTD=
EXTT0=
EXTT1=
EXTT2=
EXTT3=
EXTT4=
EXTT5=
EXTT6=
EXTT7=
EXTT8=
EXTT9=
EXTT10=
EXTT11=
EXTT12=
EXTT13=
EXTT14=
EXTT15=
PLAYORDER=
